<?xml version="1.0" encoding="UTF-8" standalone="no"?>
<svg
   viewBox="0 0 250.22682 318.23871"
   height="318.23871"
   width="250.22682"
   version="1.1"
   id="svg3704"
   inkscape:version="1.4.2 (f4327f4, 2025-05-13)"
   sodipodi:docname="Logo.svg"
   xmlns:inkscape="http://www.inkscape.org/namespaces/inkscape"
   xmlns:sodipodi="http://sodipodi.sourceforge.net/DTD/sodipodi-0.dtd"
   xmlns:xlink="http://www.w3.org/1999/xlink"
   xmlns="http://www.w3.org/2000/svg"
   xmlns:svg="http://www.w3.org/2000/svg"
   xmlns:rdf="http://www.w3.org/1999/02/22-rdf-syntax-ns#"
   xmlns:cc="http://creativecommons.org/ns#"
   xmlns:dc="http://purl.org/dc/elements/1.1/">
  <sodipodi:namedview
     pagecolor="#ffffff"
     bordercolor="#666666"
     borderopacity="1"
     objecttolerance="10"
     gridtolerance="10"
     guidetolerance="10"
     inkscape:pageopacity="0"
     inkscape:pageshadow="2"
     inkscape:window-width="1920"
     inkscape:window-height="1009"
     id="namedview81"
     showgrid="false"
     inkscape:zoom="1.3235292"
     inkscape:cx="264.0667"
     inkscape:cy="213.44447"
     inkscape:window-x="2040"
     inkscape:window-y="-8"
     inkscape:window-maximized="1"
     inkscape:current-layer="g3716"
     inkscape:showpageshadow="2"
     inkscape:pagecheckerboard="0"
     inkscape:deskcolor="#d1d1d1" />
  <metadata
     id="metadata3710">
    <rdf:RDF>
      <cc:Work
         rdf:about="">
        <dc:format>image/svg+xml</dc:format>
        <dc:type
           rdf:resource="http://purl.org/dc/dcmitype/StillImage" />
      </cc:Work>
    </rdf:RDF>
  </metadata>
  <defs
     id="defs3708">
    <linearGradient
       id="linearGradient4822">
      <stop
         id="stop4824"
         offset="0"
         style="stop-color:#0000ff;stop-opacity:1;" />
      <stop
         id="stop4826"
         offset="1"
         style="stop-color:#0000ff;stop-opacity:0;" />
    </linearGradient>
    <linearGradient
       id="linearGradient4812">
      <stop
         id="stop4814"
         offset="0"
         style="stop-color:#ffff00;stop-opacity:1;" />
      <stop
         id="stop4816"
         offset="1"
         style="stop-color:#ffff00;stop-opacity:0;" />
    </linearGradient>
    <linearGradient
       id="linearGradient4804">
      <stop
         id="stop4806"
         offset="0"
         style="stop-color:#ffff00;stop-opacity:1;" />
      <stop
         id="stop4808"
         offset="1"
         style="stop-color:#ffff00;stop-opacity:0;" />
    </linearGradient>
    <linearGradient
       id="linearGradient4796">
      <stop
         id="stop4798"
         offset="0"
         style="stop-color:#0000ff;stop-opacity:1;" />
      <stop
         id="stop4800"
         offset="1"
         style="stop-color:#0000ff;stop-opacity:0;" />
    </linearGradient>
    <linearGradient
       x1="26.648937"
       y1="20.603781"
       x2="135.66525"
       y2="114.39767"
       id="linearGradient1478"
       xlink:href="#linearGradient4689"
       gradientUnits="userSpaceOnUse"
       gradientTransform="matrix(0.562541,0,0,0.567972,103.84262,159.12006)" />
    <linearGradient
       id="linearGradient4689">
      <stop
         style="stop-color:#5a9fd4;stop-opacity:1"
         offset="0"
         id="stop4691" />
      <stop
         style="stop-color:#306998;stop-opacity:1"
         offset="1"
         id="stop4693" />
    </linearGradient>
    <linearGradient
       x1="150.96111"
       y1="192.35176"
       x2="112.03144"
       y2="137.27299"
       id="linearGradient1475"
       xlink:href="#linearGradient4671"
       gradientUnits="userSpaceOnUse"
       gradientTransform="matrix(0.562541,0,0,0.567972,103.84262,159.12006)" />
    <linearGradient
       id="linearGradient4671">
      <stop
         style="stop-color:#ffd43b;stop-opacity:1"
         offset="0"
         id="stop4673" />
      <stop
         style="stop-color:#ffe873;stop-opacity:1"
         offset="1"
         id="stop4675" />
    </linearGradient>
    <linearGradient
       gradientTransform="matrix(0.562541,0,0,0.567972,-9.399749,-5.305317)"
       gradientUnits="userSpaceOnUse"
       xlink:href="#linearGradient4689"
       id="linearGradient1478-7"
       y2="114.39767"
       x2="135.66525"
       y1="20.603781"
       x1="26.648937" />
    <linearGradient
       gradientTransform="matrix(0.562541,0,0,0.567972,-9.399749,-5.305317)"
       gradientUnits="userSpaceOnUse"
       xlink:href="#linearGradient4671"
       id="linearGradient1475-5"
       y2="137.27299"
       x2="112.03144"
       y1="192.35176"
       x1="150.96111" />
    <radialGradient
       gradientTransform="matrix(2.382716e-8,-0.296405,1.43676,4.683673e-7,-128.544,150.5202)"
       gradientUnits="userSpaceOnUse"
       xlink:href="#linearGradient2795"
       id="radialGradient1480"
       fy="132.28575"
       fx="61.518883"
       r="29.036913"
       cy="132.28575"
       cx="61.518883" />
    <linearGradient
       id="linearGradient2795">
      <stop
         id="stop2797"
         offset="0"
         style="stop-color:#b8b8b8;stop-opacity:0.49803922" />
      <stop
         id="stop2799"
         offset="1"
         style="stop-color:#7f7f7f;stop-opacity:0" />
    </linearGradient>
    <linearGradient
       gradientUnits="userSpaceOnUse"
       y2="29.509094"
       x2="205.39159"
       y1="29.509094"
       x1="10.681204"
       id="linearGradient4802"
       xlink:href="#linearGradient4689" />
    <linearGradient
       gradientUnits="userSpaceOnUse"
       y2="288.00128"
       x2="199.04239"
       y1="288.00128"
       x1="8.3328552"
       id="linearGradient4810"
       xlink:href="#linearGradient4671" />
    <linearGradient
       gradientUnits="userSpaceOnUse"
       y2="336.26297"
       x2="279.38077"
       y1="336.26297"
       x1="247.19255"
       id="linearGradient4818"
       xlink:href="#linearGradient4671" />
    <linearGradient
       gradientUnits="userSpaceOnUse"
       y2="135.17363"
       x2="90.889328"
       y1="135.17363"
       x1="13.801555"
       id="linearGradient4820"
       xlink:href="#linearGradient4671" />
    <linearGradient
       gradientUnits="userSpaceOnUse"
       y2="192.16116"
       x2="178.60767"
       y1="192.16116"
       x1="79.539154"
       id="linearGradient4828"
       xlink:href="#linearGradient4689"
       gradientTransform="translate(0,1.6963162)" />
    <linearGradient
       inkscape:collect="always"
       xlink:href="#linearGradient4671"
       id="linearGradient4223"
       x1="21.947712"
       y1="207.37572"
       x2="304.84918"
       y2="207.37572"
       gradientUnits="userSpaceOnUse" />
    <linearGradient
       inkscape:collect="always"
       xlink:href="#linearGradient4671"
       id="linearGradient4231"
       x1="125.23439"
       y1="140.30392"
       x2="220.34544"
       y2="140.30392"
       gradientUnits="userSpaceOnUse" />
    <linearGradient
       inkscape:collect="always"
       xlink:href="#linearGradient4671"
       id="linearGradient4239"
       x1="125.23439"
       y1="140.30392"
       x2="220.34544"
       y2="140.30392"
       gradientUnits="userSpaceOnUse" />
  </defs>
  <path
     id="path3753"
     d="M 135.90125,0.02351672 132.62498,156.72049 m -0.32385,22.05627 -1.90019,82.11831"
     style="fill:none;fill-rule:evenodd;stroke:#000000;stroke-width:2.25;stroke-linecap:butt;stroke-linejoin:miter;stroke-miterlimit:4;stroke-dasharray:none;stroke-opacity:1" />
  <path
     id="path3761-6"
     d="m 10.757288,286.245 29.361144,-17.23211 90.665528,-10.10572 66.00365,19.58938 -23.93069,21.35515 -95.434632,17.21683 z"
     style="fill:url(#linearGradient4810);fill-opacity:1.0;fill-rule:evenodd;stroke:#000000;stroke-width:2.25;stroke-linecap:butt;stroke-linejoin:miter;stroke-miterlimit:4;stroke-dasharray:none;stroke-opacity:1" />
  <path
     id="path3751"
     d="M 40.180916,269.53841 44.895462,9.4526097"
     style="fill:none;fill-rule:evenodd;stroke:#000000;stroke-width:2.25;stroke-linecap:butt;stroke-linejoin:miter;stroke-miterlimit:4;stroke-dasharray:none;stroke-opacity:1" />
  <path
     id="path3755"
     d="M 202.56736,19.974265 196.90428,278.18174"
     style="fill:none;fill-rule:evenodd;stroke:#000000;stroke-width:2.25;stroke-linecap:butt;stroke-linejoin:miter;stroke-miterlimit:4;stroke-dasharray:none;stroke-opacity:1" />
  <g
     id="g3716"
     transform="matrix(0.75,0,0,0.75,-15.75,-4.1382553)">
    <path
       id="path3730"
       d="m 244.75068,408.31081 c -2.02947,-0.53041 -3.22054,-4.30261 -2.39593,-7.58809 0.31435,-1.25251 0.64313,-11.64194 0.73061,-23.08763 l 0.15905,-20.81035 -4.00067,-4.16237 c -2.20037,-2.2893 -4.6211,-5.50647 -5.3794,-7.14926 -1.45782,-3.15824 -0.50115,-2.78081 -21.7419,-8.57784 -4.05765,-1.10742 -7.51631,-1.87474 -7.68589,-1.70515 -0.16958,0.16958 -0.67468,3.67468 -1.12244,7.78911 L 202.5,350.5 l -5.89575,0.30425 c -3.24266,0.16734 -6.30517,-0.10517 -6.80558,-0.60558 -0.50041,-0.50041 -1.1791,-5.06603 -1.5082,-10.14584 -0.52573,-8.11471 -0.85285,-9.34589 -2.69442,-10.14111 -2.00363,-0.86521 -7.04022,-2.2674 -32.44067,-9.03151 l -11.34462,-3.02107 -3.95739,2.74247 c -7.2222,5.00499 -16.56879,4.32218 -24.09081,-1.75993 l -2.73744,-2.21343 -11.762562,1.83156 c -28.453581,4.43052 -42.673825,7.27399 -43.123472,8.62293 -0.251952,0.75586 -2.636318,3.67744 -5.29859,6.4924 L 46,338.69325 46,362.12412 C 46,389.39947 45.837205,390 38.443296,390 c -8.139906,0 -8.141199,-0.005 -7.741235,-27.99014 l 0.347925,-24.34427 -3.649226,-3.008 C 22.988764,331.02085 21,326.61153 21,320.46638 c 0,-5.15075 1.035789,-7.66054 4.872186,-11.80566 C 29.136413,305.13382 33.118521,303 36.436152,303 c 1.832516,0 3.20715,-1.03968 4.958133,-3.75 2.505221,-3.87779 11.347488,-20.12684 16.816928,-30.90374 l 3.123119,-6.15375 -1.73086,-5.50285 c -2.304666,-7.32714 -1.012685,-12.26377 4.856788,-18.55768 l 4.319611,-4.63198 0.655598,-48.51176 0.655599,-48.51175 -9.795534,-7.11793 c -8.28599,-6.02101 -10.152303,-6.98236 -12.110634,-6.23824 -3.166254,1.2031 -10.454525,1.10644 -13.8698,-0.18394 -3.448627,-1.30298 -8.010224,-5.51102 -9.904376,-9.13672 -1.686301,-3.22784 -1.857979,-12.05639 -0.293932,-15.115401 0.614235,-1.201343 2.927112,-4.065358 5.139725,-6.36448 L 33.27945,88.139558 33.486101,71.819779 C 33.895908,39.456196 33.909475,39.233382 35.571429,37.571429 37.36349,35.779367 44.129426,35.463715 47.065741,37.035184 48.900354,38.017039 49,39.382352 49,63.537786 l 0,25.467419 3.992762,3.607221 c 2.398319,2.166737 4.47116,5.203967 5.190751,7.605744 1.718008,5.73421 4.246963,6.56008 10.274357,3.35529 6.430755,-3.41927 12.418591,-3.42194 18.243791,-0.008 l 4.377376,2.56532 44.710483,-16.228423 c 24.59076,-8.92563 45.21875,-16.615113 45.83997,-17.087739 0.62121,-0.472627 1.41388,-2.281318 1.76148,-4.019315 0.37906,-1.895297 2.4121,-4.865632 5.07979,-7.421728 l 4.44779,-4.261734 0.36195,-23.987972 c 0.26829,-17.78034 0.69868,-24.3937081 1.66317,-25.5558456 1.69348,-2.0405175 11.31237,-2.1692177 12.96865,-0.1735198 0.83539,1.0065828 1.02991,8.2335164 0.69946,25.9867454 l -0.45775,24.592392 2.83716,2.020234 C 214.52824,62.512326 218,69.508919 218,74.11848 c 0,3.356761 0.54626,3.869654 14.62202,13.728925 8.04211,5.633041 14.83884,10.02507 15.10384,9.760064 0.26501,-0.265005 0.59455,-6.922597 0.73232,-14.794648 0.48714,-27.835994 0.46995,-27.598095 2.11325,-29.241392 1.96773,-1.967727 9.35287,-2.078483 11.95027,-0.17922 1.79772,1.314525 1.8897,2.812033 1.64847,26.837098 l -0.25548,25.444883 6.98983,7.15824 c 6.45992,6.61555 7.18832,7.08277 9.60776,6.1629 3.80335,-1.44603 12.15892,-1.21899 15.28738,0.41539 11.85187,6.19171 13.76443,21.97029 3.6817,30.37396 -4.13127,3.4433 -4.22262,4.39555 -5.20079,54.21532 -1.02712,52.31257 -1.37415,47.08994 3.47886,52.35484 5.23978,5.68449 6.84361,10.69194 5.28199,16.49134 -1.63401,6.06826 -7.19975,11.86382 -12.91228,13.44547 l -4.62914,1.28169 -9.80176,19.90961 -9.80176,19.9096 2.05176,4.93708 c 3.56799,8.58552 2.0642,15.19652 -4.92426,21.64824 l -3.93319,3.6311 -0.57143,23.8099 c -0.31429,13.09545 -1.02554,24.65843 -1.58058,25.69552 -0.78583,1.46834 -2.0525,1.85994 -5.72396,1.76961 -2.59315,-0.0638 -5.50201,-0.32174 -6.46414,-0.57319 z m -4.69496,-82.85633 c 1.89435,-1.40003 5.38057,-3.03444 7.74714,-3.63202 l 4.30287,-1.08651 9.48401,-19.55067 c 5.21621,-10.75287 9.26995,-20.10853 9.00831,-20.79035 -0.26164,-0.68183 -1.29073,-1.05174 -2.28688,-0.82202 -0.99614,0.22971 -13.38601,2.4104 -27.53304,4.84597 -14.14703,2.43558 -26.18453,4.71425 -26.75,5.06373 -0.56547,0.34949 -1.02813,1.19017 -1.02813,1.8682 0,0.67803 -2.025,3.22016 -4.5,5.64919 l -4.5,4.41642 0,8.75324 0,8.75325 4.25,1.10537 c 2.3375,0.60796 5.6,1.51903 7.25,2.0246 3.51898,1.07824 19.74524,5.69032 20.55572,5.84266 0.30565,0.0575 2.10565,-1.04102 4,-2.44106 z M 189,307.18806 c 0,-6.45963 -0.1605,-6.93061 -3.10324,-9.10626 -1.70677,-1.26188 -3.96336,-4.23878 -5.01462,-6.61534 -1.43485,-3.24371 -2.71802,-4.57779 -5.14676,-5.35095 C 167.17825,283.39147 138.94205,276 137.09302,276 135.18766,276 135,276.57213 135,282.38131 c 0,6.08595 0.15787,6.50172 3.41072,8.9828 1.96837,1.50134 4.12468,4.47094 5.099,7.02218 1.41516,3.70554 2.27891,4.58051 5.33928,5.40858 2.00805,0.54334 9.726,2.66269 17.151,4.70966 25.50347,7.03098 23,7.17427 23,-1.31647 z M 82.192877,305.52122 c 20.635243,-3.51315 26.522723,-4.84895 27.307123,-6.1957 0.55,-0.9443 2.8882,-3.78704 5.19601,-6.3172 4.18735,-4.5908 4.19664,-4.6185 4.5,-13.42467 L 119.5,270.75928 115,269.38455 c -2.475,-0.7561 -8.86051,-2.53672 -14.19002,-3.95694 l -9.690023,-2.58222 -4.309979,2.49558 c -2.370488,1.37257 -6.119405,2.97195 -8.330928,3.55417 -3.976339,1.04685 -4.134435,1.27384 -14.25,20.46009 C 58.603073,300.02605 54,309.03646 54,309.37836 c 0,0.94155 0.03396,0.93691 28.192877,-3.85714 z M 240.97448,268.86286 c 17.43131,-2.95043 25.87077,-4.79349 26.72959,-5.83734 0.69031,-0.83904 3.35607,-3.89359 5.92393,-6.78789 l 4.66883,-5.26237 0.26358,-14.73763 c 0.14498,-8.1057 0.564,-30.17768 0.93116,-49.04886 l 0.66756,-34.31123 -4.46343,-4.77177 c -2.45489,-2.62448 -4.77645,-6.19692 -5.15902,-7.93877 -0.82233,-3.74406 -1.30209,-3.82798 -6.0087,-1.05101 -5.12129,3.02164 -12.07609,2.92122 -18.21348,-0.26297 l -4.86909,-2.52617 -40.4727,14.80401 c -58.32352,21.33343 -53.64589,19.31348 -54.43233,23.50557 -0.44094,2.35046 -2.23936,5.10634 -5.35223,8.20174 L 136.5,187.5 136,218.73545 c -0.275,17.1795 -0.34898,33.41921 -0.1644,36.08823 l 0.33561,4.85278 8.16439,2.2767 c 4.49042,1.25219 11.27251,3.16508 15.07132,4.25085 12.92111,3.69313 21.08906,5.74887 22.93535,5.77245 1.01325,0.013 2.9845,-0.87493 4.38055,-1.97307 6.34525,-4.99117 15.47695,-4.54915 21.56634,1.04392 1.98291,1.82129 3.97571,2.79201 5.21084,2.53826 1.1,-0.22598 13.46352,-2.3512 27.47448,-4.72271 z M 120.05048,240.25 c 0.0278,-8.1125 0.24411,-23.42837 0.48075,-34.03527 l 0.43027,-19.28527 -4.37628,-4.21473 c -4.32696,-4.16722 -6.56753,-9.20165 -6.57964,-14.78408 -0.004,-2.00686 -1.48332,-3.66807 -6.75558,-7.58806 -11.998769,-8.92123 -17.326939,-12.59922 -17.698083,-12.21686 -0.199806,0.20585 -0.646743,19.7403 -0.993194,43.4099 l -0.62991,43.03562 3.138829,2.32064 c 1.726356,1.27635 4.00279,4.27376 5.058743,6.66092 2.089784,4.7243 0.218578,3.8505 21.873615,10.21444 6.28703,1.84762 5.99567,2.49854 6.05048,-13.51725 z m 68.12817,-100.76532 c 24.92674,-9.08342 45.97828,-16.88357 46.78119,-17.33365 0.80291,-0.45009 2.34297,-2.97026 3.42234,-5.60038 l 1.96251,-4.78205 -2.42235,-1.87488 c -1.33229,-1.03119 -5.34734,-3.89836 -8.92234,-6.37149 -3.575,-2.47313 -9.37543,-6.492303 -12.88985,-8.931493 -5.36526,-3.723773 -6.77873,-4.28704 -8.8151,-3.512815 -4.57989,1.74127 -11.37325,1.066292 -15.88611,-1.578418 l -4.26677,-2.500496 -26.32109,9.601644 c -14.47659,5.280908 -34.82544,12.697988 -45.21967,16.482418 -10.39422,3.78442 -18.975787,7.00141 -19.070145,7.14885 -2.1621,3.37849 -5.534642,12.14485 -4.896356,12.72725 0.4758,0.43415 6.851783,5.0891 14.168851,10.34433 12.58002,9.03518 13.46732,9.49796 16.31026,8.50691 4.51788,-1.57494 13.48484,-0.51587 16.67745,1.96975 1.48969,1.1598 3.01392,2.13373 3.38718,2.16428 0.37326,0.0306 21.07326,-7.37633 46,-16.45976 z"
       style="fill:#a1a1d6" />
    <path
       id="path3728"
       d="m 246.5,407.07848 c -1.93723,-0.75645 -1.98936,-1.54666 -1.66099,-25.17972 l 0.33901,-24.39876 -4.1971,-4 c -2.3084,-2.2 -5.02197,-5.88802 -6.03016,-8.19561 -1.573,-3.60037 -2.44436,-4.35237 -6.14191,-5.3006 -2.36987,-0.60774 -7.45885,-2.05955 -11.30885,-3.22624 -3.85,-1.16669 -8.8,-2.15642 -11,-2.1994 l -4,-0.0781 -0.30321,6.46165 c -0.16677,3.55391 -0.78437,7.04141 -1.37245,7.75 -1.16175,1.39984 -7.58146,1.72986 -9.53224,0.49004 -0.75762,-0.48151 -1.31679,-4.11043 -1.5,-9.73469 L 189.5,330.5 186,328.79743 c -1.925,-0.93642 -8,-2.88855 -13.5,-4.33808 -26.81056,-7.06592 -30.59355,-7.88798 -31.89626,-6.9312 -6.41904,4.71455 -7.1284,4.97185 -13.70693,4.97185 -5.96051,0 -7.11186,-0.33455 -10.54398,-3.06374 -2.11906,-1.68506 -4.43118,-3.40892 -5.13806,-3.83079 -1.49679,-0.89331 -50.614114,6.96093 -53.991754,8.6337 -1.252341,0.62022 -2.540138,2.17616 -2.86177,3.45765 -0.321633,1.28149 -2.671991,4.16638 -5.223017,6.41088 L 44.5,338.18861 44,362.8443 43.5,387.5 l -5.5,0 -5.5,0 0,-24.66185 0,-24.66185 -4.198149,-3.88667 C 23.377715,329.73083 22,326.62493 22,320.08278 22,312.13476 29.330587,304 36.492896,304 c 1.78414,0 3.886338,-0.77342 4.756583,-1.75 1.847508,-2.07325 20.412539,-36.07532 20.884391,-38.25 0.179005,-0.825 -0.48155,-4.04547 -1.467898,-7.1566 C 58.161924,248.94516 59.526846,244.06171 65.932703,238 l 4.755479,-4.5 0.5678,-47.96502 0.567801,-47.96502 -3.347587,-3.15718 c -1.841173,-1.73645 -6.414024,-5.47243 -10.161892,-8.30217 -5.637377,-4.25638 -7.24609,-5.0136 -9.314304,-4.38424 -1.375,0.41841 -5.280327,0.76365 -8.678505,0.76719 C 33.408581,122.50077 30.179179,120.78333 26.25,115.01017 24.602359,112.58928 24,110.2581 24,106.30246 24,99.793246 25.484185,96.678418 30.899236,91.82317 L 35,88.14634 35,73.728733 c 0,-7.929684 0.293919,-19.221335 0.653153,-25.092557 0.624666,-10.209372 0.758448,-10.701377 3.067411,-11.28089 1.327842,-0.333267 3.846423,-0.194496 5.596847,0.308381 L 47.5,38.577988 l -0.37746,24.73846 -0.377459,24.738459 4.981745,4.776452 c 3.43782,3.29615 5.270097,5.995731 5.912165,8.710671 1.130483,4.78016 5.015613,6.79197 8.659673,4.48416 7.628171,-4.83097 14.776933,-5.24474 20.477944,-1.18526 1.667673,1.18749 3.862666,2.15893 4.877762,2.15875 1.015097,-1.7e-4 10.17063,-3.07674 20.34563,-6.83681 10.175,-3.760065 26.375,-9.688647 36,-13.174623 9.625,-3.485975 21.30575,-7.727791 25.95723,-9.426257 l 8.45722,-3.088121 1.75967,-4.986934 C 185.37131,66.094074 187.3854,63.2214 190.47503,60.5 l 4.54124,-4 -0.008,-21.125 c -0.004,-11.61875 0.26581,-22.494752 0.60064,-24.168894 0.69228,-3.461388 3.31364,-4.5716222 8.39466,-3.5554179 l 3.1988,0.6397601 -0.3438,24.8425498 -0.34379,24.842549 3.61227,2.977545 C 214.53839,64.589394 217,69.514277 217,74.703885 c 0,3.891701 0.0375,3.927938 14.75,14.244105 8.1125,5.688363 15.425,10.389623 16.25,10.447244 1.26885,0.08862 1.6142,-3.208373 2.2411,-21.395234 0.4076,-11.825 0.96507,-22.086191 1.23881,-22.802647 0.34343,-0.898833 2.12867,-1.208829 5.75891,-1 L 262.5,54.5 l -0.37972,25.299091 -0.37973,25.299089 4.07815,4.20091 c 2.24298,2.3105 5.68229,5.93934 7.64291,8.06409 2.87909,3.12011 3.995,3.71929 5.80157,3.11508 8.96314,-2.99776 17.72962,-0.97639 22.41682,5.16885 5.41673,7.10169 3.96646,17.13036 -3.46483,23.9594 l -4.46866,4.10651 -1.00546,49.1042 -1.00547,49.10419 4.40399,4.28929 c 5.88108,5.72794 7.38427,10.66233 5.34255,17.53755 -1.84729,6.22051 -6.82959,10.96387 -12.46223,11.86456 -2.16037,0.34546 -4.57026,1.3614 -5.35533,2.25765 C 281.78432,290.01698 265,325.4565 265,327.28003 c 0,0.77698 0.78189,2.94433 1.73754,4.81633 3.80944,7.46226 1.20421,17.69111 -5.66334,22.23584 l -3.77744,2.49979 -0.53314,24.26315 c -0.4807,21.87704 -0.71078,24.39305 -2.33951,25.58401 -1.98921,1.45455 -4.85222,1.59883 -7.92411,0.39933 z m -5.45391,-80.99691 c 2.21582,-1.60513 5.78602,-3.21531 7.93377,-3.57817 2.14775,-0.36286 4.31076,-1.18707 4.80669,-1.83157 C 256.04851,317.73218 272,283.11809 272,281.14936 c 0,-1.21667 -0.67327,-2.47049 -1.49616,-2.78626 -1.54948,-0.59459 -48.64281,6.98501 -54.07792,8.70377 -2.00042,0.63259 -3.63754,2.15369 -4.68734,4.35514 -0.88729,1.86067 -3.44145,4.85221 -5.67592,6.64787 L 202,301.33473 l 0,8.26121 c 0,9.46428 0.74038,10.72929 7.295,12.46421 2.31275,0.61216 8.705,2.38823 14.205,3.94684 5.5,1.5586 10.7914,2.86964 11.75866,2.91342 0.96726,0.0438 3.5716,-1.2337 5.78743,-2.83884 z M 190.39301,314.41821 C 190.72686,313.54823 191,310.27455 191,307.14338 c 0,-5.43256 -0.20096,-5.88215 -4.39206,-9.82613 -2.41563,-2.2732 -4.9247,-5.74701 -5.57571,-7.71958 -1.14092,-3.45703 -1.53287,-3.69075 -10.85794,-6.47474 -22.97941,-6.86048 -33.53494,-9.38519 -35.10833,-8.39733 -1.10412,0.69322 -1.6525,2.91392 -1.85939,7.52977 -0.28693,6.40151 -0.22045,6.59783 3,8.85889 4.26137,2.99189 5.43589,4.53823 7.06472,9.30116 l 1.33899,3.91541 20.94486,5.76203 c 11.51967,3.16912 21.68422,5.79468 22.58787,5.83459 0.90366,0.0399 1.91616,-0.63925 2.25,-1.50924 z M 81.10948,307.5 c 14.324772,-2.475 26.44872,-4.5 26.9421,-4.5 0.49338,0 1.63201,-1.4625 2.53028,-3.25 0.89827,-1.7875 3.62849,-5.3094 6.06715,-7.82645 l 4.43392,-4.57644 -0.29147,-8.82558 -0.29146,-8.82558 -4,-1.39169 c -2.2,-0.76542 -8.83052,-2.64745 -14.73449,-4.18229 l -10.734487,-2.79062 -4.265512,2.84642 c -2.346031,1.56553 -5.890957,3.11356 -7.877613,3.44008 -1.986656,0.32652 -4.113172,0.90334 -4.72559,1.28184 -0.612418,0.37849 -5.809261,9.43562 -11.54854,20.12695 -8.115072,15.11703 -10.224771,19.83169 -9.489227,21.20607 0.520205,0.97201 1.169493,1.76729 1.442864,1.76729 0.27337,0 12.217304,-2.025 26.542075,-4.5 z m 155.79727,-36.03219 c 33.00475,-5.66103 30.83574,-5.04273 33.07282,-9.42776 1.06926,-2.09593 3.74827,-5.32487 5.95333,-7.17542 l 4.00922,-3.36463 1.07162,-48.85825 1.07161,-48.85826 -4.97214,-5.2573 c -3.30119,-3.49052 -5.20128,-6.47871 -5.65397,-8.89175 -0.74515,-3.97202 -2.56701,-4.64811 -6.01582,-2.23247 -5.84204,4.09192 -14.49819,3.81996 -20.79125,-0.65321 -3.28704,-2.33647 -0.69266,-2.98379 -27.15217,6.77472 -9.9,3.65121 -25.875,9.50072 -35.5,12.99891 -25.0968,9.12139 -32.91943,12.16585 -34.38504,13.3822 -0.7102,0.58941 -1.85918,2.96719 -2.5533,5.28395 -0.81968,2.73585 -2.84252,5.66343 -5.77119,8.35241 l -4.50915,4.14011 -0.53758,34.00603 c -0.29567,18.70331 -0.24458,35.17342 0.11352,36.60023 0.72139,2.87423 2.09876,3.36923 32.47962,11.67257 l 15.33688,4.19169 3.75016,-2.59886 c 7.91625,-5.48596 15.43168,-5.31269 22.24099,0.51278 1.8343,1.56927 4.41813,2.87151 5.74184,2.89386 1.32372,0.0224 11.67372,-1.54884 23,-3.49155 z M 120.78022,255.75 c 0.63971,-0.78006 1.1503,-13.90455 1.35811,-34.90983 l 0.333,-33.65983 -4.64005,-4.34017 c -4.81704,-4.50573 -7.20021,-10.09794 -6.61938,-15.53273 0.25725,-2.40711 -1.08437,-3.70116 -12.527543,-12.08343 -7.474458,-5.47513 -13.41344,-9.15821 -14.25,-8.83719 C 83.234376,146.84729 83,151.65502 83,175.80962 c 0,15.87982 -0.291881,35.6159 -0.648625,43.85797 l -0.648626,14.98558 3.600525,2.22525 c 2.38134,1.47175 4.452852,4.02692 6.11764,7.54599 l 2.517116,5.32075 12.28099,3.52581 c 14.77882,4.24293 13.31853,3.99432 14.5612,2.47903 z m 30.19857,-101.1529 c 7.23004,-2.6641 33.46265,-12.23248 62.52121,-22.80471 10.45,-3.80197 20.06551,-7.44811 21.3678,-8.10253 2.15554,-1.0832 6.12918,-9.1215 6.13139,-12.4032 4.4e-4,-0.66734 -6.84808,-5.98147 -15.21894,-11.80917 -11.50973,-8.012954 -15.71465,-10.4372 -17.25,-9.9451 -1.11664,0.357897 -4.50525,0.875489 -7.53025,1.150204 -4.74764,0.431157 -6.01905,0.145046 -9.29441,-2.091556 -4.68576,-3.199702 -5.08066,-3.199199 -13.43276,0.01711 -3.72506,1.434481 -14.64783,5.441111 -24.27283,8.903623 -19.49188,7.012039 -42.36604,15.358609 -51.5,18.791879 -5.807382,2.18287 -6.118145,2.48648 -9.680164,9.45734 l -3.680165,7.20206 14.667759,10.57298 c 11.28183,8.13229 15.13231,10.41382 16.68016,9.88354 5.48226,-1.87816 12.00901,-1.52455 16.51241,0.8946 5.81091,3.12153 6.25097,3.13043 13.97879,0.28293 z"
       style="fill:#b6b6b6;stroke:#000000;fill-opacity:1" />
    <path
       id="path3726"
       d="m 247.12766,406.76698 -3.37235,-0.88757 0.62241,-5.6897 c 0.34232,-3.12934 0.65336,-13.96611 0.69119,-24.0817 l 0.0688,-18.392 -4.27771,-4.35867 c -2.35274,-2.39727 -5.19623,-6.25471 -6.31885,-8.57209 -1.90381,-3.92993 -2.47847,-4.32531 -8.54114,-5.87652 -3.575,-0.91471 -9.9669,-2.61507 -14.20421,-3.77858 -5.87929,-1.61436 -8.33374,-1.87612 -10.36185,-1.10504 -2.58487,0.98277 -2.64682,1.20158 -2.26309,7.99266 l 0.39453,6.98223 -4.15769,0 c -3.85661,0 -4.20295,-0.2263 -4.78269,-3.125 -0.34375,-1.71875 -0.625,-5.69901 -0.625,-8.84501 0,-4.18394 -0.46995,-6.14088 -1.75,-7.28722 -0.9625,-0.86196 -7.825,-3.23222 -15.25,-5.26725 -32.15173,-8.81208 -30.84462,-8.6255 -35.13508,-5.01531 -6.02773,5.072 -15.46724,4.67835 -22.6748,-0.94559 -5.42205,-4.23073 -1.99892,-4.33461 -34.69012,1.05276 -11.55,1.90339 -22.005043,3.97644 -23.23343,4.60678 -1.228386,0.63033 -2.494268,2.08651 -2.81307,3.23595 -0.318802,1.14944 -3.305771,4.6046 -6.63771,7.67814 l -6.05807,5.58825 -0.12886,23.65842 -0.12886,23.65843 -3.627555,0.003 c -1.995156,0.002 -4.087538,-0.55917 -4.64974,-1.24667 -0.658319,-0.80504 -0.878385,-9.67312 -0.618219,-24.91262 l 0.403964,-23.66263 -3.885559,-3.07742 C 19.128469,327.1816 19.513507,313.28786 29.92168,306.2738 31.777427,305.02321 34.734475,304 36.492896,304 c 1.78414,0 3.886338,-0.77342 4.756583,-1.75 1.847508,-2.07325 20.412539,-36.07532 20.884391,-38.25 0.179005,-0.825 -0.48155,-4.04547 -1.467898,-7.1566 -2.508007,-7.91073 -1.141095,-12.78096 5.295403,-18.86723 l 4.784152,-4.52383 0.617595,-48.15844 0.617595,-48.15843 -6.740358,-5.60022 C 52.950781,121.32448 51.651484,120.62989 47.440552,122.01962 35.483078,125.96594 24,118.2664 24,106.30246 c 0,-6.509214 1.484185,-9.624042 6.899236,-14.47929 3.875194,-3.474579 4.106178,-3.997143 4.199197,-9.5 0.05414,-3.202743 0.237068,-14.010571 0.406511,-24.017395 0.169444,-10.006823 0.601707,-18.669323 0.960585,-19.25 0.869529,-1.406928 5.840548,-1.349698 7.273989,0.08374 0.821634,0.821634 0.973612,7.498341 0.544796,23.933964 l -0.594722,22.794447 3.405204,2.787714 c 6.996784,5.728008 9.419571,8.986724 11.267152,15.15464 1.019762,3.40435 2.08271,6.18972 2.362106,6.18972 0.279395,0 2.806827,-1.6875 5.616514,-3.75 4.567988,-3.35321 5.746078,-3.75 11.133977,-3.75 4.647325,0 6.746916,0.51462 9.179825,2.25 1.734904,1.2375 4.10159,2.25 5.259301,2.25 1.157712,0 11.438249,-3.43618 22.845629,-7.63597 C 160.04397,82.691875 169.7152,79.180522 175,77.492315 c 7.04035,-2.249007 7.75807,-2.869837 9.08529,-7.858803 0.76104,-2.860678 2.61441,-5.54111 6.01881,-8.704668 l 4.91915,-4.571156 0.0441,-19.428844 c 0.064,-28.1865162 0.47615,-30.0131873 6.43489,-28.5176388 L 204,9.0381041 l 0,23.3878299 0,23.387829 4.88426,4.089338 C 214.77473,64.834877 217,69.169003 217,75.709999 c 0,2.699258 0.5625,5.664376 1.25,6.589152 0.6875,0.924776 7.325,5.923622 14.75,11.108548 17.74525,12.391621 16.72648,13.311281 17.45782,-15.759303 0.30236,-12.018383 0.79959,-22.255883 1.10497,-22.75 0.75247,-1.217516 4.12922,-1.133597 6.55159,0.162819 1.9217,1.028463 1.96195,1.79231 1.30421,24.75 L 258.73991,103.5 l 4.55108,3.37669 c 2.5031,1.85718 6.24333,5.83376 8.31164,8.83685 3.50039,5.08242 3.97283,5.41418 6.82896,4.79557 11.99927,-2.59893 18.43143,-1.17739 23.24841,5.138 5.93366,7.77942 3.75126,18.52197 -5.12417,25.22299 l -5.34068,4.03225 -0.5857,15.29883 c -0.32214,8.41435 -0.85645,29.65267 -1.18736,47.19626 l -0.60166,31.89744 5.86063,5.60256 c 7.41499,7.08849 8.98116,11.44229 6.78106,18.85081 -1.811,6.09829 -6.74307,10.86336 -12.21074,11.79728 -9.69824,1.65653 -9.43341,1.3713 -18.25476,19.66105 -8.70698,18.05264 -8.58813,17.39861 -4.68728,25.79342 2.55234,5.49278 2.70362,12.30223 0.37858,17.04089 -0.95556,1.94753 -4.20326,5.32246 -7.21728,7.5 L 254.01071,359.5 253.82566,380 c -0.10178,11.275 -0.0917,21.90674 0.0225,23.62609 0.24351,3.66832 -1.54341,4.50345 -6.72047,3.14089 z m -7.49839,-79.68794 c 3.01155,-2.15652 7.22606,-4.2167 9.36557,-4.57817 2.13951,-0.36147 4.29578,-1.18454 4.79171,-1.82904 0.49592,-0.64451 4.82982,-9.37144 9.63087,-19.39319 9.05765,-18.907 9.95638,-22.51317 5.75894,-23.10784 -2.71113,-0.3841 -49.4404,7.45639 -53.26765,8.93754 -1.42521,0.55155 -3.30932,2.50853 -4.1869,4.34884 -0.87758,1.8403 -4.07388,5.30279 -7.10289,7.69442 l -5.50729,4.3484 -0.0512,6.5 c -0.0463,5.88612 0.23356,6.8038 2.96378,9.71673 1.74475,1.86151 4.79726,3.68853 7.24537,4.33658 2.32673,0.61592 8.73041,2.39507 14.23041,3.95368 5.5,1.5586 10.14709,2.86964 10.32686,2.91342 0.17977,0.0438 2.79085,-1.68484 5.80242,-3.84137 z M 105.75,311.49923 c 1.72615,-0.41223 2.25,-1.24986 2.25,-3.59774 0,-2.81326 -0.22207,-3.01333 -2.75,-2.47749 -6.394906,1.3555 -43.876655,7.56259 -45.25,7.49353 -3.07772,-0.15476 1.08589,-1.00646 23.762186,-4.86072 12.794202,-2.17461 23.709904,-4.23054 24.257114,-4.56874 0.54721,-0.33819 1.71512,-2.04886 2.59535,-3.80148 0.88024,-1.75263 3.54293,-5.21159 5.91709,-7.68659 4.24744,-4.42784 4.32449,-4.63284 4.80485,-12.78435 0.58742,-9.96826 0.85896,-9.70009 -13.83659,-13.66542 -5.5,-1.48407 -11.308508,-3.11634 -12.907796,-3.62726 -2.446428,-0.78155 -3.653733,-0.45028 -7.609114,2.08788 -2.876749,1.84601 -7.313592,3.49658 -11.432293,4.25299 l -6.730974,1.23616 -9.239397,16.97929 -9.239398,16.9793 1.5245,3.881 c 0.838476,2.13455 2.547634,4.34717 3.79813,4.91693 1.250495,0.56977 2.048971,1.39944 1.774391,1.84372 -0.274581,0.44428 -0.229127,1.88399 0.101009,3.19936 l 0.600248,2.39157 22.680347,-3.82731 C 93.293844,313.75884 104.5125,311.79476 105.75,311.49923 Z M 189.8,316.8 c 0.70718,-0.70718 1.2,-4.10552 1.2,-8.27483 0,-7.06521 -0.006,-7.08046 -4.39206,-11.20792 -2.41563,-2.2732 -4.91651,-5.72219 -5.5575,-7.66442 -1.39945,-4.24038 -2.43116,-4.67707 -26.46803,-11.20303 -15.44284,-4.19271 -21.99941,-5.43492 -22.97244,-4.35238 -0.19902,0.22142 -0.56872,3.0084 -0.82156,6.19329 -0.44771,5.63956 -0.36611,5.86977 3.12594,8.81943 7.16183,6.04943 8.08083,7.14174 9.22689,10.96695 0.64113,2.13989 1.94931,4.59987 2.90708,5.46664 1.54055,1.39417 37.03437,12.08747 41.00168,12.35266 0.8525,0.057 2.09,-0.43639 2.75,-1.09639 z m 52.1954,-38.14701 c 25.03433,-4.34094 26.47723,-4.85652 24.07173,-8.60137 -0.79661,-1.24014 -4.42663,-0.84324 -25.24875,2.7607 -13.37511,2.315 -24.65588,4.20427 -25.06838,4.19838 -0.92839,-0.0132 -0.99762,4.40835 -0.0833,5.32263 0.83827,0.83828 -2.09457,1.24824 26.32873,-3.68034 z m 0.005,-7.00972 24.5,-4.24775 2,-3.41466 c 1.1,-1.87806 4.1719,-5.55132 6.82645,-8.16282 l 4.82645,-4.74816 0.36841,-16.78494 c 0.20263,-9.23172 0.65197,-31.10579 0.99852,-48.60905 l 0.63011,-31.82411 -5.00444,-5.29145 c -3.32904,-3.51997 -5.23269,-6.50819 -5.68626,-8.92589 -0.79374,-4.23104 -1.8568,-4.43758 -7.55449,-1.46777 -6.6321,3.45684 -12.68263,2.82736 -20.5118,-2.13398 -1.86612,-1.18256 -3.86709,-0.68402 -17.5,4.36015 -8.46612,3.13246 -21.46795,7.92148 -28.89295,10.64227 -39.95987,14.64273 -46.67004,17.18746 -48.5,18.3929 -1.1,0.7246 -2.78655,3.56994 -3.74788,6.32298 -1.37608,3.94075 -2.88442,5.86362 -7.09076,9.03943 l -5.34287,4.03391 -0.65925,13.74595 C 131.29666,210.13055 131,225.64748 131,237.05236 l 0,20.73613 2.75,2.90549 c 2.36004,2.49348 5.73343,3.71381 23.78921,8.60576 11.57156,3.13514 21.69656,5.68774 22.5,5.67244 0.80343,-0.0153 3.23736,-1.37194 5.40871,-3.01475 8.06478,-6.10167 15.92449,-5.87701 23.32734,0.6668 2.11568,1.87018 4.80472,3.28696 6.22474,3.27966 1.375,-0.007 13.525,-1.92435 27,-4.26062 z M 120.78294,256.75 c 0.64019,-0.77857 1.18846,-14.18585 1.45376,-35.54957 l 0.42594,-34.29957 -3.86142,-3.0583 c -4.959,-3.9276 -7.07743,-8.09389 -7.29274,-14.34256 l -0.17228,-5 -10.9181,-8.21635 c -12.783462,-9.62011 -16.561306,-11.82641 -18.787536,-10.97213 -1.467437,0.56311 -1.647238,4.78065 -1.797231,42.1571 -0.09167,22.84226 -0.204166,42.31086 -0.25,43.26356 -0.04667,0.97011 2.020794,3.27983 4.699356,5.25 3.499333,2.57387 5.574421,5.1861 7.733239,9.73501 2.885141,6.07937 3.078386,6.25324 8.717312,7.84315 3.17172,0.89428 7.79176,2.2277 10.26676,2.96316 5.78912,1.72027 8.503,1.7831 9.78294,0.2265 z m 35.29908,-103.79861 c 6.27989,-2.22673 15.01798,-5.43211 19.41798,-7.12307 4.4,-1.69095 13.4,-5.00593 20,-7.36662 23.26517,-8.32148 40.00891,-14.63917 41.01827,-15.47687 0.56142,-0.46593 1.89238,-3.41141 2.95769,-6.54551 l 1.93693,-5.69836 -2.95644,-2.38271 c -1.62605,-1.31049 -6.0428,-4.5147 -9.81501,-7.12048 C 224.86924,98.631997 220.54499,95.6 219.032,94.5 210.75918,88.485338 211.15168,88.63798 207.08866,89.855292 200.83627,91.728553 195.68921,91.278316 191.59514,88.5 189.56896,87.125 187.2413,86 186.42255,86 c -0.81875,0 -6.76127,2.00116 -13.20559,4.447022 -6.44433,2.445862 -17.34196,6.440383 -24.21696,8.876713 -14.32583,5.076725 -41.35354,14.930165 -48,17.499285 -3.745782,1.44788 -4.91901,2.5845 -7,6.78155 -1.375,2.77317 -3.2875,6.23079 -4.25,7.6836 -0.9625,1.4528 -1.75,3.07101 -1.75,3.596 0,0.89595 24.06579,18.82011 26.54721,19.77232 0.63,0.24175 3.1271,-0.25051 5.54912,-1.09392 6.32383,-2.20211 11.75973,-1.94441 16.94178,0.80318 2.45404,1.30116 5.1738,2.42616 6.04391,2.5 0.87011,0.0738 6.72011,-1.68762 13,-3.91436 z"
       style="fill:#979797;stroke:#000000;fill-opacity:1" />
    <path
       id="path3724"
       d="M 242.3875,353.95973 C 238.00226,350.5302 234,343.94464 234,340.15844 c 0,-3.84817 3.82765,-10.9252 7.37048,-13.62745 4.96319,-3.78561 11.57994,-5.20193 16.1588,-3.4588 4.75558,1.8104 9.01762,7.08565 10.62031,13.14505 1.80613,6.82855 -0.87076,13.05603 -7.53647,17.53276 -6.64021,4.4596 -12.70223,4.52936 -18.22562,0.20973 z M 29.967187,334.82932 C 20.204781,327.43538 19.258628,316.76326 27.660724,308.81362 31.361458,305.31217 35.005938,304 41.030303,304 c 3.98004,0 5.519717,0.54403 8.200053,2.89739 5.182927,4.55067 7.439193,15.97338 4.33923,21.96805 -2.189621,4.23426 -8.858982,8.35987 -14.370478,8.88945 -4.227157,0.40618 -5.26874,0.0761 -9.231921,-2.92557 z m 92.195463,-12.5465 c -1.28554,-0.24465 -4.54804,-2.57564 -7.25,-5.17998 C 110.25433,312.61282 110,312.0959 110,307.1181 c 0,-6.11885 0.93107,-8.25269 5.84252,-13.38995 5.55496,-5.81037 11.93853,-6.82402 19.37848,-3.07713 6.75556,3.40222 10.85017,12.65723 8.86369,20.03447 -2.1757,8.07994 -12.2896,13.43046 -21.92204,11.59733 z m 67.36692,-23.50707 c -7.46971,-4.33874 -11.44328,-14.20613 -8.21264,-20.39404 3.93499,-7.53699 12.49819,-11.97746 19.6145,-10.17115 6.17471,1.56731 9.59405,5.31001 11.13272,12.18548 1.74681,7.80559 0.0991,12.65408 -5.7228,16.8394 -5.66782,4.07457 -11.52485,4.6112 -16.81178,1.54031 z m 90.20424,-15.141 c -2.6214,-0.73359 -4.89399,-1.51401 -5.0502,-1.73427 -0.15621,-0.22026 -1.49893,-1.89751 -2.98382,-3.72721 C 269.57204,275.55143 269,273.78946 269,269.85753 c 0,-5.53538 0.98193,-7.99349 4.87219,-12.19681 3.19137,-3.44818 7.2357,-5.66264 10.32815,-5.65514 11.41602,0.0277 20.44688,10.44482 17.69501,20.41127 -0.58259,2.10997 -2.72664,5.62384 -4.76456,7.80859 -3.04208,3.26127 -4.50409,4.04126 -8.16804,4.35769 -2.45451,0.21198 -6.60753,-0.21479 -9.22894,-0.94838 z M 72.120925,266.04624 c -5.393509,-1.35105 -7.720202,-2.98852 -9.993397,-7.03312 -2.439845,-4.34112 -2.727438,-9.64157 -0.776484,-14.31086 1.633879,-3.91042 7.686422,-9.42258 11.358246,-10.34414 3.062224,-0.76857 10.257465,0.91877 13.791155,3.23413 5.525215,3.62026 8.290356,15.56758 4.922549,21.26882 -3.505108,5.93368 -11.868995,9.04713 -19.302069,7.18517 z m 49.750125,-81.05223 c -10.02102,-5.29525 -13.34344,-17.37369 -7.12889,-25.91662 2.50403,-3.4422 9.84102,-7.08261 14.21973,-7.05543 7.82534,0.0486 16.29954,6.52419 17.59845,13.44798 0.9189,4.89817 -1.98134,12.86378 -5.8809,16.15208 -6.58922,5.55635 -12.62633,6.63869 -18.80839,3.37199 z M 281.49997,151.22152 C 276.18799,147.87839 272,142.28087 272,138.52422 c -4.9167,-13.51004 14.98477,-23.59685 4.01545,-13.32976 -2.08875,-3.25652 6.83593,-6.65537 14.08314,-5.95901 9.22514,0.88642 15.55686,8.59138 14.66737,17.84845 -0.56239,5.85289 -2.57466,9.09936 -7.77195,12.53876 -5.21268,3.44959 -11.51931,4.10039 -15.49404,1.59886 z M 76.466177,126.09538 c -3.409831,-2.52812 -8.971863,-7.18234 -9.824086,-10.02681 -1.843008,-10.92273 0.743046,-7.23924 -0.525811,-7.07311 2.213203,-4.5808 8.705408,-7.61064 14.346296,-6.69525 8.740719,1.41843 16.530511,10.7503 14.598154,17.48804 -2.073888,7.23122 -5.70557,14.13403 -8.027702,12.7022 -4.683106,-2.88761 -4.641236,-2.0017 -10.566851,-6.39507 z M 195.02988,89.887411 c -4.7828,-1.908801 -8.86729,-5.894815 -10.54678,-10.292493 -1.58769,-4.157296 -1.58924,-4.759291 -0.0244,-9.470578 1.95224,-5.877645 6.73037,-10.559619 12.3097,-12.061976 10.64427,-2.866204 22.37254,8.219136 19.76454,18.681063 -1.63999,6.578811 -3.83488,9.488364 -8.95697,11.87344 -5.4254,2.526305 -8.59524,2.847315 -12.54609,1.270544 z"
       style="fill:url(#linearGradient4223);fill-opacity:1"
       inkscape:connector-curvature="0"
       sodipodi:nodetypes="sssssssssssssssssssssssssssssssssssssssssssssssssssccsssssccsssssssssss" />
    <path
       id="path3722"
       d="m 122.16265,322.28282 c -1.28554,-0.24465 -4.54804,-2.57564 -7.25,-5.17998 C 110.25433,312.61282 110,312.0959 110,307.1181 c 0,-6.11885 0.93107,-8.25269 5.84252,-13.38995 5.55496,-5.81037 11.93853,-6.82402 19.37848,-3.07713 6.75556,3.40222 10.85017,12.65723 8.86369,20.03447 -2.1757,8.07994 -12.2896,13.43046 -21.92204,11.59733 z m 157.57116,-38.64807 c -2.6214,-0.73359 -4.89399,-1.51401 -5.0502,-1.73427 -0.15621,-0.22026 -1.49893,-1.89751 -2.98382,-3.72721 C 269.57204,275.55143 269,273.78946 269,269.85753 c 0,-5.53538 0.98193,-7.99349 4.87219,-12.19681 3.19137,-3.44818 7.2357,-5.66264 10.32815,-5.65514 11.41602,0.0277 20.44688,10.44482 17.69501,20.41127 -0.58259,2.10997 -2.72664,5.62384 -4.76456,7.80859 -3.04208,3.26127 -4.50409,4.04126 -8.16804,4.35769 -2.45451,0.21198 -6.60753,-0.21479 -9.22894,-0.94838 z M 72.120925,266.04624 c -5.393509,-1.35105 -7.720202,-2.98852 -9.993397,-7.03312 -2.439845,-4.34112 -2.727438,-9.64157 -0.776484,-14.31086 1.633879,-3.91042 7.686422,-9.42258 11.358246,-10.34414 3.062224,-0.76857 10.257465,0.91877 13.791155,3.23413 5.525215,3.62026 8.290356,15.56758 4.922549,21.26882 -3.505108,5.93368 -11.868995,9.04713 -19.302069,7.18517 z M 264.34828,137.09742 c -4.91022,2.5977 -6.60046,3.00713 -10.53768,2.55257 -9.95245,-1.14904 -16.99061,-9.54646 -15.3465,-18.31034 1.85848,-9.90654 9.6845,-17.11957 17.44508,-16.07866 9.00592,1.20795 16.98973,8.73755 17.16111,16.18479 0,0 0.5369,10.79568 -8.72201,15.65164 z M 35.604322,121.96157 c -3.392339,-1.01515 -8.190516,-5.3277 -10.193598,-9.16191 -5.86937,-11.23487 6.335104,-26.441655 18.946979,-23.607955 16.710967,6.727872 17.319895,24.684545 4.498746,31.192535 -5.440848,2.71129 -8.318265,3.05378 -13.252127,1.57733 z M 195.02988,89.887411 c -4.7828,-1.908801 -8.86729,-5.894815 -10.54678,-10.292493 -1.58769,-4.157296 -1.58924,-4.759291 -0.0244,-9.470578 1.95224,-5.877645 6.73037,-10.559619 12.3097,-12.061976 10.64427,-2.866204 22.37254,8.219136 19.76454,18.681063 -1.63999,6.578811 -3.83488,9.488364 -8.95697,11.87344 -5.4254,2.526305 -8.59524,2.847315 -12.54609,1.270544 z"
       style="fill:#1b76a6;fill-opacity:1"
       inkscape:connector-curvature="0"
       sodipodi:nodetypes="sssssssssssssssssssssssscsssccssccssssssss" />
  </g>
  <path
     id="path3749"
     d="M 13.538492,88.876608 12.318402,223.49327"
     style="fill:none;fill-rule:evenodd;stroke:#000000;stroke-width:2.25;stroke-linecap:butt;stroke-linejoin:miter;stroke-miterlimit:4;stroke-dasharray:none;stroke-opacity:1"
     inkscape:connector-curvature="0"
     sodipodi:nodetypes="cc" />
  <path
     id="path3757"
     d="m 175.77863,100.6981 -2.00516,135.62121"
     style="fill:none;fill-rule:evenodd;stroke:#000000;stroke-width:2.25;stroke-linecap:butt;stroke-linejoin:miter;stroke-miterlimit:4;stroke-dasharray:none;stroke-opacity:1"
     inkscape:connector-curvature="0"
     sodipodi:nodetypes="cc" />
  <path
     id="path3759"
     d="m 80.470018,55.026556 -0.640074,53.446354 m -1.566079,130.76808 -0.936867,78.22864"
     style="fill:none;fill-rule:evenodd;stroke:#000000;stroke-width:2.25;stroke-linecap:butt;stroke-linejoin:miter;stroke-miterlimit:4;stroke-dasharray:none;stroke-opacity:1"
     inkscape:connector-curvature="0"
     sodipodi:nodetypes="cccc" />
  <path
     id="path3761"
     d="M 13.323035,25.167764 46.324858,9.4526097 136.687,2.3807897 202.69065,20.453218 177.5464,36.95413 80.898198,56.598076 Z"
     style="fill:url(#linearGradient4802);fill-opacity:1.0;fill-rule:evenodd;stroke:#000000;stroke-width:2.25;stroke-linecap:butt;stroke-linejoin:miter;stroke-miterlimit:4;stroke-dasharray:none;stroke-opacity:1" />
  <rect
     style="opacity:1;fill:url(#linearGradient4828);fill-opacity:1;stroke:#000000;stroke-width:1.51223421;stroke-linejoin:miter;stroke-miterlimit:4;stroke-dasharray:none;stroke-dashoffset:0;stroke-opacity:1"
     id="rect4167"
     width="94.336121"
     height="21.01264"
     x="83.515411"
     y="182.91731"
     transform="matrix(0.98388504,-0.17880222,0,1,0,0)" />
  <g
     style="fill:url(#linearGradient4231);stroke:url(#linearGradient4239);stroke-width:1.20000005;stroke-miterlimit:4;stroke-dasharray:none;fill-opacity:1"
     transform="matrix(0.75,-0.1362981,0,0.75,-2.640401,89.420846)"
     id="g4213">
    <g
       style="font-style:normal;font-variant:normal;font-weight:normal;font-stretch:normal;letter-spacing:normal;word-spacing:normal;text-anchor:start;fill:url(#linearGradient4231);fill-opacity:1;fill-rule:evenodd;stroke:url(#linearGradient4239);stroke-width:2.69182372;stroke-linecap:butt;stroke-linejoin:miter;stroke-miterlimit:4;stroke-dasharray:none;stroke-dashoffset:0;stroke-opacity:1"
       id="content"
       transform="matrix(0.44579441,0,0,-0.44579441,-78.014022,326.83928)"
       xml:space="preserve"
       stroke-miterlimit="10.433"
       font-style="normal"
       font-variant="normal"
       font-weight="normal"
       font-stretch="normal"
       font-size-adjust="none"
       letter-spacing="normal"
       word-spacing="normal"><path
         style="fill:url(#linearGradient4231);stroke:url(#linearGradient4239);stroke-width:2.69182372;stroke-miterlimit:4;stroke-dasharray:none;fill-opacity:1"
         d="m 466.83,421.95 -0.15,1.28 0,13.45 c 0,1.66 0.11,2 2.43,2 l 4.44,0 c 7.92,0 7.92,-5.28 7.92,-7.72 0,-2.34 0,-7.73 -7.92,-7.73 l -6.87,0 0.15,-1.28 8.42,0 c 5.97,0 11.36,4.03 11.36,9.01 0,4.88 -4.93,9.27 -11.76,9.27 l -17.58,0 0,-1.55 1.19,0 c 3.84,0 3.93,-0.54 3.93,-2.34 l 0,-26.25 c 0,-1.8 -0.09,-2.34 -3.93,-2.34 l -1.19,0 0,-1.55 c 1.73,0.16 5.42,0.16 7.31,0.16 1.89,0 5.64,0 7.38,-0.16 l 0,1.55 -1.19,0 c -3.84,0 -3.94,0.54 -3.94,2.34 z"
         id="path4216" /><path
         style="fill:url(#linearGradient4231);stroke:url(#linearGradient4239);stroke-width:2.69182372;stroke-miterlimit:4;stroke-dasharray:none;fill-opacity:1"
         d="m 510.15,422.93 0.06,0.15 0.06,0.14 0.07,0.14 0.07,0.13 0.06,0.12 0.07,0.13 0.07,0.12 0.08,0.11 0.15,0.22 0.15,0.2 0.16,0.19 0.16,0.18 0.16,0.16 0.17,0.14 0.17,0.14 0.17,0.12 0.17,0.11 0.17,0.1 0.17,0.09 0.17,0.09 0.16,0.07 0.17,0.06 0.16,0.05 0.16,0.05 0.16,0.04 0.15,0.03 0.15,0.03 0.14,0.02 0.14,0.02 0.13,0.02 0.12,0.01 0.11,0 0.11,0.01 0.1,0 0.09,0 0.08,0 0,1.55 c -1.16,-0.1 -2.59,-0.14 -3.74,-0.14 -0.9,0 -3.25,0.09 -4.34,0.14 l 0,-1.55 c 1.55,-0.05 2.34,-0.89 2.34,-2.14 0,-0.5 -0.04,-0.59 -0.29,-1.19 l -5.03,-12.26 -5.53,13.4 c -0.21,0.5 -0.3,0.71 -0.3,0.91 0,1.28 1.84,1.28 2.78,1.28 l 0,1.55 c -1.28,-0.05 -4.58,-0.14 -5.42,-0.14 -1.35,0 -3.35,0.04 -4.83,0.14 l 0,-1.55 c 2.39,0 3.33,0 4.03,-1.73 l 7.47,-18.19 c -0.25,-0.64 -0.94,-2.3 -1.25,-2.94 -1.09,-2.73 -2.48,-6.19 -5.67,-6.19 -0.25,0 -1.39,0 -2.35,0.91 1.55,0.2 1.94,1.3 1.94,2.09 0,1.3 -0.94,2.1 -2.08,2.1 -1,0 -2.09,-0.66 -2.09,-2.14 0,-2.25 2.09,-4.05 4.58,-4.05 3.14,0 5.19,2.84 6.37,5.69 z"
         id="path4218" /><path
         style="fill:url(#linearGradient4231);stroke:url(#linearGradient4239);stroke-width:2.69182372;stroke-miterlimit:4;stroke-dasharray:none;fill-opacity:1"
         d="m 527.32,439.57 -0.05,0.06 -0.03,0.05 -0.04,0.05 -0.04,0.05 -0.03,0.04 -0.03,0.04 -0.04,0.04 -0.03,0.03 -0.03,0.04 -0.03,0.03 -0.03,0.02 -0.03,0.03 -0.03,0.02 -0.04,0.02 -0.03,0.02 -0.03,0.02 -0.04,0.02 -0.04,0.01 -0.04,0.01 -0.04,0.01 -0.04,0.01 -0.05,0.01 -0.05,0.01 -0.05,0 -0.06,0.01 -0.06,0 -0.06,0 -0.07,0.01 -0.07,0 -0.04,0 -0.04,0 -0.04,0 -0.04,0 -0.04,0 -0.05,0 -8.46,0 0,-1.55 1.45,0 c 0.75,0 1.73,-0.04 2.48,-0.09 1.14,-0.16 1.2,-0.2 1.2,-1.16 l 0,-26 c 0,-1.34 0,-3.68 -5.13,-3.68 l 0,-1.55 c 1.75,0.05 4.18,0.16 5.82,0.16 1.66,0 4.1,-0.11 5.83,-0.16 l 0,1.55 c -5.12,0 -5.12,2.34 -5.12,3.68 l 0,25.91 c 0.25,-0.25 0.29,-0.3 0.5,-0.59 l 20.32,-29.91 c 0.44,-0.59 0.5,-0.64 0.85,-0.64 0.7,0 0.7,0.34 0.7,1.3 l 0,27.5 c 0,1.34 0,3.68 5.13,3.68 l 0,1.55 c -1.75,-0.05 -4.19,-0.16 -5.83,-0.16 -1.64,0 -4.1,0.11 -5.83,0.16 l 0,-1.55 c 5.13,0 5.13,-2.34 5.13,-3.68 l 0,-21.29 z"
         id="path4220" /><path
         style="fill:url(#linearGradient4231);stroke:url(#linearGradient4239);stroke-width:2.69182372;stroke-miterlimit:4;stroke-dasharray:none;fill-opacity:1"
         d="m 561.88,428.21 -6.97,-0.54 0,-1.55 c 3.24,0 3.69,-0.3 3.69,-2.73 l 0,-13.41 c 0,-2.23 -0.55,-2.23 -3.89,-2.23 l 0,-1.55 c 1.59,0.05 4.28,0.16 5.49,0.16 1.75,0 3.48,-0.11 5.18,-0.16 l 0,1.55 c -3.29,0 -3.5,0.25 -3.5,2.18 z"
         id="path4222" /><path
         style="fill:url(#linearGradient4231);stroke:url(#linearGradient4239);stroke-width:2.69182372;stroke-miterlimit:4;stroke-dasharray:none;fill-opacity:1"
         d="m 562.09,436.89 -0.01,0.14 -0.01,0.15 -0.02,0.14 -0.02,0.14 -0.03,0.13 -0.04,0.13 -0.04,0.13 -0.05,0.12 -0.06,0.12 -0.06,0.12 -0.06,0.11 -0.07,0.1 -0.08,0.1 -0.08,0.1 -0.08,0.1 -0.09,0.08 -0.1,0.09 -0.09,0.08 -0.1,0.07 -0.11,0.07 -0.11,0.07 -0.11,0.06 -0.11,0.05 -0.12,0.05 -0.11,0.04 -0.12,0.04 -0.13,0.03 -0.12,0.03 -0.13,0.02 -0.13,0.01 -0.13,0.01 -0.12,0.01 c -1.55,0 -2.65,-1.35 -2.65,-2.64 0,-1.35 1.1,-2.64 2.65,-2.64 1.39,0 2.64,1.04 2.64,2.64 z"
         id="path4224" /><path
         style="fill:url(#linearGradient4231);stroke:url(#linearGradient4239);stroke-width:2.69182372;stroke-miterlimit:4;stroke-dasharray:none;fill-opacity:1"
         d="m 575.49,426.12 7.13,0 0,1.55 -7.13,0 0,9.17 -1.25,0 c -0.04,-4.08 -1.54,-9.42 -6.42,-9.61 l 0,-1.11 4.23,0 0,-13.75 c 0,-6.12 4.63,-6.72 6.43,-6.72 3.53,0 4.93,3.53 4.93,6.72 l 0,2.84 -1.25,0 0,-2.73 c 0,-3.69 -1.5,-5.58 -3.34,-5.58 -3.33,0 -3.33,4.53 -3.33,5.38 z"
         id="path4226" /><path
         style="fill:url(#linearGradient4231);stroke:url(#linearGradient4239);stroke-width:2.69182372;stroke-miterlimit:4;stroke-dasharray:none;fill-opacity:1"
         d="m 594.5,422.75 0,5.46 -6.93,-0.54 0,-1.55 c 3.49,0 3.9,-0.34 3.9,-2.78 l 0,-13.36 c 0,-2.23 -0.55,-2.23 -3.9,-2.23 l 0,-1.55 c 1.96,0.05 4.28,0.16 5.69,0.16 1.99,0 4.33,0 6.33,-0.16 l 0,1.55 -1.05,0 c -3.69,0 -3.79,0.54 -3.79,2.34 l 0,7.67 c 0,4.92 2.09,9.36 5.89,9.36 0.34,0 0.43,0 0.54,-0.05 -0.15,-0.04 -1.15,-0.64 -1.15,-1.93 0,-1.41 1.04,-2.14 2.15,-2.14 0.89,0 2.14,0.59 2.14,2.18 0,1.6 -1.54,3.03 -3.68,3.03 -3.64,0 -5.44,-3.32 -6.14,-5.46 z"
         id="path4228" /><path
         style="fill:url(#linearGradient4231);stroke:url(#linearGradient4239);stroke-width:2.69182372;stroke-miterlimit:4;stroke-dasharray:none;fill-opacity:1"
         d="m 614.55,428.21 -6.96,-0.54 0,-1.55 c 3.23,0 3.68,-0.3 3.68,-2.73 l 0,-13.41 c 0,-2.23 -0.54,-2.23 -3.89,-2.23 l 0,-1.55 c 1.6,0.05 4.28,0.16 5.49,0.16 1.75,0 3.48,-0.11 5.18,-0.16 l 0,1.55 c -3.29,0 -3.5,0.25 -3.5,2.18 z"
         id="path4230" /><path
         style="fill:url(#linearGradient4231);stroke:url(#linearGradient4239);stroke-width:2.69182372;stroke-miterlimit:4;stroke-dasharray:none;fill-opacity:1"
         d="m 614.76,436.89 -0.01,0.14 -0.01,0.15 -0.01,0.14 -0.03,0.14 -0.03,0.13 -0.04,0.13 -0.04,0.13 -0.05,0.12 -0.05,0.12 -0.06,0.12 -0.07,0.11 -0.07,0.1 -0.08,0.1 -0.08,0.1 -0.08,0.1 -0.09,0.08 -0.09,0.09 -0.1,0.08 -0.1,0.07 -0.11,0.07 -0.1,0.07 -0.11,0.06 -0.12,0.05 -0.11,0.05 -0.12,0.04 -0.12,0.04 -0.13,0.03 -0.12,0.03 -0.13,0.02 -0.12,0.01 -0.13,0.01 -0.13,0.01 c -1.55,0 -2.64,-1.35 -2.64,-2.64 0,-1.35 1.09,-2.64 2.64,-2.64 1.39,0 2.64,1.04 2.64,2.64 z"
         id="path4232" /><path
         style="fill:url(#linearGradient4231);stroke:url(#linearGradient4239);stroke-width:2.69182372;stroke-miterlimit:4;stroke-dasharray:none;fill-opacity:1"
         d="m 638.48,408.93 0,-3.28 7.31,0.55 0,1.55 c -3.49,0 -3.88,0.34 -3.88,2.78 l 0,30.25 -7.17,-0.55 0,-1.55 c 3.49,0 3.88,-0.34 3.88,-2.79 l 0,-10.75 c -1.44,1.78 -3.58,3.07 -6.28,3.07 l 0.2,-1.09 c 1.75,0 3.84,-0.75 5.39,-2.98 0.55,-0.85 0.55,-0.96 0.55,-1.85 l 0,0 0,-10.22 c 0,-0.89 0,-1 -0.55,-1.84 -1.5,-2.39 -3.75,-3.48 -5.89,-3.48 -2.24,0 -4.03,1.29 -5.22,3.18 -1.3,2.05 -1.45,4.89 -1.45,6.93 0,1.84 0.09,4.84 1.54,7.07 1.05,1.55 2.94,3.19 5.63,3.19 l -0.2,1.09 c -5.88,0 -11.11,-4.87 -11.11,-11.29 0,-6.33 4.89,-11.27 10.56,-11.27 3.19,0 5.44,1.69 6.69,3.28 z"
         id="path4234" /><path
         style="fill:url(#linearGradient4231);stroke:url(#linearGradient4239);stroke-width:2.69182372;stroke-miterlimit:4;stroke-dasharray:none;fill-opacity:1"
         d="m 652.79,417.71 0.05,1.05 c 0.29,7.42 4.48,8.66 6.18,8.66 5.13,0 5.63,-6.72 5.63,-8.66 l -11.81,0 -0.05,-1.05 13.91,0 c 1.09,0 1.23,0 1.23,1.05 0,4.92 -2.69,9.75 -8.91,9.75 -5.78,0 -10.37,-5.12 -10.37,-11.36 0,-6.67 5.23,-11.5 10.97,-11.5 6.08,0 8.31,5.53 8.31,6.47 0,0.5 -0.39,0.61 -0.64,0.61 -0.45,0 -0.55,-0.3 -0.66,-0.7 -1.73,-5.13 -6.22,-5.13 -6.72,-5.13 -2.5,0 -4.48,1.49 -5.62,3.33 -1.5,2.39 -1.5,5.69 -1.5,7.48 z"
         id="path4236" /></g>
  </g>
  <rect
     transform="matrix(0.87693071,0.48061682,0,1,0,0)"
     style="opacity:1;fill:url(#linearGradient4820);fill-opacity:1;stroke:#000000;stroke-width:1.60180104;stroke-linejoin:miter;stroke-miterlimit:4;stroke-dasharray:none;stroke-dashoffset:0;stroke-opacity:1"
     id="rect4167-3"
     width="71.632225"
     height="20.744461"
     x="14.602455"
     y="124.61861"
     ry="0" />
  <rect
     style="opacity:1;fill:url(#linearGradient4818);fill-opacity:1.0;stroke:#000000;stroke-width:1.7832253;stroke-linejoin:miter;stroke-miterlimit:4;stroke-dasharray:none;stroke-dashoffset:0;stroke-opacity:1"
     id="rect4167-6"
     width="30.404991"
     height="21.470196"
     x="248.08417"
     y="325.52786"
     transform="matrix(0.70757086,-0.7066424,0,1,0,0)" />
  <g
     id="g2303"
     transform="matrix(0,-0.29399107,0.29399107,0,208.75492,163.01355)">
    <path
       d="m 184.61344,61.929363 c 0,-14.56215 -4.15226,-22.03817 -12.45678,-22.44755 -3.30427,-0.15595 -6.53055,0.37039 -9.66912,1.58878 -2.505,0.89673 -4.19124,1.78372 -5.07823,2.68045 l 0,34.75812 c 5.31216,3.33351 10.02976,4.88329 14.14303,4.63962 8.70415,-0.57508 13.0611,-7.64172 13.0611,-21.21942 z m 10.24419,0.60432 c 0,7.39804 -1.73498,13.53871 -5.22444,18.422 -3.88909,5.5266 -9.27923,8.37275 -16.17042,8.52871 -5.1952,0.1657 -10.54635,-1.46207 -16.05346,-4.87355 l 0,31.590317 -8.90884,-3.17755 0,-70.120567 c 1.46206,-1.79346 3.34325,-3.3335 5.62407,-4.63961 5.30242,-3.08983 11.74524,-4.67861 19.32848,-4.75658 l 0.12671,0.12671 c 6.93018,-0.08773 12.27159,2.75843 16.02422,8.5287 3.4992,5.29267 5.25368,12.07665 5.25368,20.37142 z"
       style="fill:#a1a1a1;fill-opacity:1"
       id="path46" />
    <path
       d="m 249.30487,83.265743 c 0,9.92254 -0.9942,16.794237 -2.9826,20.615097 -1.99816,3.82086 -5.79952,6.8717 -11.41385,9.14277 -4.55189,1.79346 -9.47417,2.76817 -14.75709,2.93387 l -1.47181,-5.61432 c 5.37064,-0.73103 9.15252,-1.46207 11.34561,-2.1931 4.31796,-1.46206 7.28108,-3.70389 8.90884,-6.706 1.30611,-2.446517 1.94942,-7.115367 1.94942,-14.026057 l 0,-2.3198 c -6.09193,2.76817 -12.47628,4.14251 -19.15303,4.14251 -4.38619,0 -8.25579,-1.37434 -11.58929,-4.14251 -3.74289,-3.01186 -5.61433,-6.83272 -5.61433,-11.46258 l 0,-37.07793 8.90884,-3.05084 0,37.3216 c 0,3.98656 1.28662,7.0569 3.85985,9.21101 2.57323,2.1541 5.90674,3.18729 9.99077,3.10932 4.08403,-0.08773 8.46047,-1.66676 13.10983,-4.75658 l 0,-43.54025 8.90884,0 0,48.41379 z"
       style="fill:#a1a1a1;fill-opacity:1"
       id="path48" />
    <path
       d="m 284.08249,88.997033 c -1.06243,0.08772 -2.03714,0.12671 -2.93387,0.12671 -5.03925,0 -8.96733,-1.19889 -11.77449,-3.60642 -2.79742,-2.40753 -4.20099,-5.73129 -4.20099,-9.97127 l 0,-35.08953 -6.10168,0 0,-5.60457 6.10168,0 0,-14.88381 8.89909,-3.16781 0,18.05162 10.01026,0 0,5.60457 -10.01026,0 0,34.84585 c 0,3.34325 0.89673,5.71179 2.6902,7.09588 1.54004,1.14041 3.98656,1.79347 7.32006,1.95917 l 0,4.63961 z"
       style="fill:#a1a1a1;fill-opacity:1"
       id="path50" />
    <path
       d="m 338.02288,88.266003 -8.90884,0 0,-34.38773 c 0,-3.49921 -0.81876,-6.51106 -2.44651,-9.02581 -1.88119,-2.84615 -4.49342,-4.26923 -7.84641,-4.26923 -4.08404,0 -9.19152,2.15411 -15.32242,6.46233 l 0,41.22044 -8.90885,0 0,-82.1972101 8.90885,-2.80716 0,37.4385701 c 5.6923,-4.14251 11.91093,-6.21864 18.66566,-6.21864 4.7176,0 8.53846,1.58877 11.46258,4.75658 2.93388,3.1678 4.39594,7.11537 4.39594,11.83296 l 0,37.1949 0,0 z"
       style="fill:#a1a1a1;fill-opacity:1"
       id="path52" />
    <path
       d="m 385.37424,60.525783 c 0,-5.59483 -1.06242,-10.21495 -3.17755,-13.87011 -2.51474,-4.45442 -6.42332,-6.80347 -11.70625,-7.04715 -9.76658,0.56534 -14.64012,7.56375 -14.64012,20.97574 0,6.15042 1.01369,11.28713 3.06057,15.41015 2.61223,5.25368 6.53056,7.84641 11.755,7.75869 9.80557,-0.07798 14.70835,-7.81717 14.70835,-23.22732 z m 9.75685,0.05848 c 0,7.96338 -2.03714,14.5914 -6.10168,19.88407 -4.47391,5.92623 -10.65357,8.89909 -18.53897,8.89909 -7.81716,0 -13.90909,-2.97286 -18.30503,-8.89909 -3.98656,-5.29267 -5.97497,-11.92069 -5.97497,-19.88407 0,-7.48576 2.15411,-13.78238 6.46232,-18.90935 4.5519,-5.43888 10.53661,-8.16806 17.93464,-8.16806 7.39805,0 13.42174,2.72918 18.06137,8.16806 4.3082,5.12697 6.46232,11.42359 6.46232,18.90935 z"
       style="fill:#a1a1a1;fill-opacity:1"
       id="path54" />
    <path
       d="m 446.20583,88.266003 -8.90884,0 0,-36.33715 c 0,-3.98656 -1.19889,-7.09588 -3.59667,-9.33772 -2.39779,-2.23208 -5.59483,-3.31401 -9.58139,-3.22628 -4.23023,0.07798 -8.25579,1.46206 -12.07664,4.14251 l 0,44.75864 -8.90884,0 0,-45.86006 c 5.12697,-3.73313 9.84456,-6.16991 14.15276,-7.31032 4.06455,-1.06243 7.65148,-1.58877 10.74131,-1.58877 2.11512,0 4.10352,0.20469 5.97496,0.61406 3.49921,0.80901 6.34535,2.31006 8.53845,4.51291 2.44651,2.43677 3.6649,5.3609 3.6649,8.78212 l 0,40.85006 z"
       style="fill:#a1a1a1;fill-opacity:1"
       id="path56" />
    <path
       d="m 60.510156,6.3979729 c -4.583653,0.021298 -8.960939,0.4122177 -12.8125,1.09375 C 36.35144,9.4962267 34.291407,13.691825 34.291406,21.429223 l 0,10.21875 26.8125,0 0,3.40625 -26.8125,0 -10.0625,0 c -7.792459,0 -14.6157592,4.683717 -16.7500002,13.59375 -2.46182,10.212966 -2.5710151,16.586023 0,27.25 1.9059283,7.937852 6.4575432,13.593748 14.2500002,13.59375 l 9.21875,0 0,-12.25 c 0,-8.849902 7.657144,-16.656248 16.75,-16.65625 l 26.78125,0 c 7.454951,0 13.406253,-6.138164 13.40625,-13.625 l 0,-25.53125 c 0,-7.266339 -6.12998,-12.7247775 -13.40625,-13.9375001 -4.605987,-0.7667253 -9.385097,-1.1150483 -13.96875,-1.09375 z m -14.5,8.2187501 c 2.769547,0 5.03125,2.298646 5.03125,5.125 -2e-6,2.816336 -2.261703,5.09375 -5.03125,5.09375 -2.779476,-1e-6 -5.03125,-2.277415 -5.03125,-5.09375 -1e-6,-2.826353 2.251774,-5.125 5.03125,-5.125 z"
       style="fill:url(#linearGradient1478-7);fill-opacity:1"
       id="path1948" />
    <path
       d="m 91.228906,35.054223 0,11.90625 c 0,9.230755 -7.825895,16.999999 -16.75,17 l -26.78125,0 c -7.335833,0 -13.406249,6.278483 -13.40625,13.625 l 0,25.531247 c 0,7.26634 6.318588,11.54032 13.40625,13.625 8.487331,2.49561 16.626237,2.94663 26.78125,0 6.750155,-1.95439 13.406253,-5.88761 13.40625,-13.625 l 0,-10.218747 -26.78125,0 0,-3.40625 26.78125,0 13.406254,0 c 7.79246,0 10.69625,-5.435408 13.40624,-13.59375 2.79933,-8.398886 2.68022,-16.475776 0,-27.25 -1.92578,-7.757441 -5.60387,-13.59375 -13.40624,-13.59375 l -10.062504,0 z m -15.0625,64.65625 c 2.779478,3e-6 5.03125,2.277417 5.03125,5.093747 -2e-6,2.82635 -2.251775,5.125 -5.03125,5.125 -2.76955,0 -5.03125,-2.29865 -5.03125,-5.125 2e-6,-2.81633 2.261697,-5.093747 5.03125,-5.093747 z"
       style="fill:url(#linearGradient1475-5);fill-opacity:1"
       id="path1950" />
    <path
       d="m 463.5544,26.909383 1.56195,0 0,-9.79624 3.70013,0 0,-1.16766 -8.96221,0 0,1.16766 3.70013,0 0,9.79624 m 6.64702,0 1.33447,0 0,-8.94703 2.89641,8.945906 1.48569,0 3.01816,-8.915576 0,8.9167 1.45579,0 0,-10.9639 -1.92589,0 -3.29831,9.392857 -2.81297,-9.392857 -2.15335,0 0,10.9639"
       style="font-style:normal;font-weight:normal;font-size:15.16445827px;line-height:125%;font-family:'Bitstream Vera Sans';fill:#a1a1a1;fill-opacity:1;stroke:none;stroke-width:1px;stroke-linecap:butt;stroke-linejoin:miter;stroke-opacity:1"
       id="text3004" />
    <path
       d="m 110.46717,132.28575 a 48.948285,8.6066899 0 1 1 -97.896571,0 48.948285,8.6066899 0 1 1 97.896571,0 z"
       transform="matrix(0.73406,0,0,0.809524,16.24958,27.00935)"
       style="opacity:0.44382019;fill:url(#radialGradient1480);fill-opacity:1;fill-rule:nonzero;stroke:none;stroke-width:20;stroke-miterlimit:4;stroke-dasharray:none;stroke-opacity:1"
       id="path1894" />
  </g>
  <text
     transform="rotate(-90)"
     id="text5011"
     y="233.37787"
     x="-293.38989"
     style="font-style:normal;font-variant:normal;font-weight:normal;font-stretch:normal;font-size:22.5px;line-height:0%;font-family:'Abyssinica SIL';-inkscape-font-specification:'Abyssinica SIL';letter-spacing:0px;word-spacing:0px;writing-mode:lr-tb;fill:#f0f0f0;fill-opacity:1;stroke:none;stroke-width:1px;stroke-linecap:butt;stroke-linejoin:miter;stroke-opacity:1"
     xml:space="preserve"><tspan
       y="233.37787"
       x="-293.38989"
       id="tspan5013"
       style="fill:#f0f0f0;fill-opacity:1">Powered by</tspan></text>
</svg>
